<svg width="36" height="36" viewBox="0 0 36 36" fill="none" xmlns="http://www.w3.org/2000/svg">
<path d="M12.8636 21.8844H15.0727C15.2396 21.8843 15.4006 21.9443 15.5254 22.0531L18.79 24.9019C18.9874 25.0674 19.2282 25.1749 19.485 25.2121C19.7417 25.2493 20.004 25.2146 20.2416 25.1122C20.4831 25.0059 20.6879 24.8327 20.8307 24.6139C20.9735 24.395 21.0481 24.1399 21.0454 23.88V11.8527C21.0481 11.5928 20.9735 11.3377 20.8307 11.1188C20.6879 10.9 20.4831 10.7268 20.2416 10.6205C20.0041 10.5129 19.7398 10.4758 19.4811 10.5139C19.2225 10.552 18.9808 10.6635 18.7859 10.8348L15.5227 13.6796C15.3986 13.7877 15.2386 13.8477 15.0727 13.8483H12.8636C12.3211 13.8483 11.8009 14.06 11.4173 14.4368C11.0337 14.8135 10.8182 15.3245 10.8182 15.8573V19.8753C10.8182 20.4082 11.0337 20.9192 11.4173 21.2959C11.8009 21.6727 12.3211 21.8844 12.8636 21.8844Z" fill="#808699"/>
<path d="M22.7711 18.4932C22.692 18.5344 22.6219 18.5905 22.5649 18.6583C22.5078 18.7261 22.4649 18.8042 22.4387 18.8883C22.4124 18.9724 22.4032 19.0607 22.4117 19.1483C22.4202 19.2358 22.4462 19.3209 22.4881 19.3986C22.5747 19.5538 22.7195 19.6698 22.8918 19.7219C23.064 19.7739 23.2502 19.7578 23.4106 19.6771C23.729 19.4896 23.9926 19.2242 24.1756 18.9069C24.3585 18.5895 24.4547 18.231 24.4547 17.8664C24.4547 17.5017 24.3585 17.1432 24.1756 16.8259C23.9926 16.5085 23.729 16.2431 23.4106 16.0556C23.2508 15.9723 23.0638 15.9548 22.8908 16.0069C22.7178 16.059 22.5729 16.1765 22.4881 16.3335C22.4033 16.4905 22.3855 16.6741 22.4385 16.8441C22.4916 17.014 22.6112 17.1562 22.7711 17.2395C22.8703 17.3124 22.9508 17.407 23.0063 17.5159C23.0617 17.6247 23.0906 17.7447 23.0906 17.8664C23.0906 17.988 23.0617 18.108 23.0063 18.2169C22.9508 18.3257 22.8703 18.4203 22.7711 18.4932Z" fill="#808699"/>
<path d="M24.777 13.6334C24.698 13.5907 24.6112 13.5638 24.5216 13.5542C24.432 13.5447 24.3414 13.5527 24.2549 13.5778C24.1685 13.6029 24.088 13.6446 24.018 13.7005C23.9481 13.7563 23.8901 13.8252 23.8475 13.9032C23.8049 13.9812 23.7784 14.0668 23.7696 14.1549C23.7609 14.243 23.77 14.3319 23.7964 14.4166C23.8229 14.5012 23.8662 14.5799 23.9238 14.648C23.9814 14.7161 24.0522 14.7723 24.132 14.8133C24.6639 15.1292 25.1004 15.5786 25.3968 16.1152C25.6931 16.6518 25.8386 17.2562 25.8182 17.8663C25.8386 18.4765 25.6931 19.0809 25.3968 19.6175C25.1004 20.1541 24.6639 20.6034 24.132 20.9193C23.9728 21.0032 23.854 21.1458 23.8017 21.3157C23.7494 21.4856 23.7679 21.6689 23.8531 21.8254C23.9408 21.98 24.0862 22.095 24.2586 22.1461C24.431 22.1972 24.617 22.1804 24.777 22.0993C25.5253 21.668 26.1428 21.0482 26.5656 20.304C26.9883 19.5599 27.2011 18.7183 27.1818 17.8663C27.2011 17.0144 26.9883 16.1728 26.5656 15.4286C26.1428 14.6844 25.5253 14.0647 24.777 13.6334Z" fill="#808699"/>
<rect x="0.5" y="0.5" width="35" height="35" rx="9.5" stroke="#2A2B35"/>
</svg>
