<svg width="26" height="22" viewBox="0 0 26 22" fill="none" xmlns="http://www.w3.org/2000/svg">
<path fill-rule="evenodd" clip-rule="evenodd" d="M25.1841 0.923216C25.0688 0.828546 24.9301 0.76567 24.782 0.740288C24.6339 0.714906 24.4817 0.728092 24.3405 0.778799C19.8881 2.35622 6.19606 7.29202 0.598715 9.27694C0.426174 9.33479 0.276997 9.44546 0.173388 9.59274C0.0697787 9.74001 0.0171674 9.91642 0.0231667 10.0953C0.0291659 10.2742 0.0934817 10.4461 0.206734 10.5863C0.319986 10.7266 0.476124 10.8279 0.652167 10.8745C3.16294 11.5909 6.45718 12.596 6.45718 12.596C6.45718 12.596 7.99711 17.0588 8.80056 19.3329C8.8489 19.4745 8.93227 19.6024 9.0433 19.7045C9.15433 19.8066 9.28949 19.8801 9.43659 19.9182C9.58703 19.9562 9.74466 19.9569 9.89543 19.9202C10.0462 19.8835 10.1854 19.8103 10.3003 19.7077C11.5858 18.5378 13.581 16.7302 13.581 16.7302C13.581 16.7302 17.3705 19.3986 19.5197 20.8643C19.6884 20.9799 19.883 21.0543 20.0869 21.0806C20.2908 21.1069 20.4981 21.0847 20.6914 21.0158C20.8823 20.948 21.0528 20.8339 21.1873 20.6846C21.3219 20.5353 21.4162 20.3558 21.4615 20.1615C22.3854 16.0011 24.6217 5.47796 25.4586 1.69216C25.4903 1.5516 25.4814 1.40504 25.4329 1.26918C25.3844 1.13331 25.2983 1.01358 25.1841 0.923216ZM20.8187 4.74866L10.019 14.1011L9.62408 17.6705L7.843 12.0311C7.843 12.0311 15.911 7.08165 20.4572 4.29487C20.5208 4.25609 20.5967 4.2417 20.6706 4.2538C20.7446 4.26589 20.8114 4.30402 20.8588 4.36099C20.9047 4.41808 20.9263 4.49015 20.9188 4.56253C20.9113 4.63491 20.8754 4.70182 20.8187 4.74866Z" fill="#6B6D7D"/>
</svg>
