<svg width="29" height="29" viewBox="0 0 29 29" fill="none" xmlns="http://www.w3.org/2000/svg">
<path d="M21.5861 3.45502H7.91393C5.36323 3.45502 3.29546 5.52279 3.29546 8.07349V21.7456C3.29546 24.2963 5.36323 26.3641 7.91393 26.3641H21.5861C24.1368 26.3641 26.2045 24.2963 26.2045 21.7456V8.07349C26.2045 5.52279 24.1368 3.45502 21.5861 3.45502ZM21.3009 13.4493H21.2987C21.1736 13.4616 21.0481 13.4679 20.9224 13.4685C20.2438 13.4686 19.5758 13.2997 18.9789 12.977C18.3819 12.6544 17.8746 12.1882 17.5029 11.6205V17.9134C17.5029 20.4822 15.4205 22.5645 12.8518 22.5645C10.2832 22.5645 8.20075 20.4822 8.20075 17.9134C8.20075 15.3447 10.2831 13.2623 12.8518 13.2623C12.9004 13.2623 12.9483 13.2645 12.9962 13.2674C13.044 13.2704 13.0916 13.274 13.1393 13.2766V15.5693C13.0438 15.5579 12.95 15.5405 12.8518 15.5405C11.5408 15.5405 10.4785 16.6035 10.4785 17.9139C10.4785 19.2243 11.5414 20.2872 12.8518 20.2872C14.1622 20.2872 15.3211 19.2542 15.3211 17.9429L15.344 7.25527H17.5368C17.7435 9.2216 19.329 10.7575 21.3009 10.9017V13.4493Z" fill="#6B6D7D"/>
</svg>
