<svg width="29" height="29" viewBox="0 0 29 29" fill="none" xmlns="http://www.w3.org/2000/svg">
<path d="M26.9528 8.78855C26.6595 7.69831 25.7997 6.83888 24.7094 6.54531C22.7175 6.00043 14.7497 6.00043 14.7497 6.00043C14.7497 6.00043 6.78224 6.00043 4.79033 6.52466C3.72097 6.81791 2.84022 7.69846 2.5469 8.78855C2.02271 10.7798 2.02271 14.9095 2.02271 14.9095C2.02271 14.9095 2.02271 19.06 2.5469 21.0305C2.84053 22.1206 3.7 22.98 4.79049 23.2736C6.80321 23.8186 14.75 23.8186 14.75 23.8186C14.75 23.8186 22.7175 23.8186 24.7094 23.2944C25.7998 23.001 26.6595 22.1415 26.9531 21.0515C27.4771 19.06 27.4771 14.9305 27.4771 14.9305C27.4771 14.9305 27.4981 10.7798 26.9528 8.78855ZM12.2129 18.7247V11.0944L18.8385 14.9095L12.2129 18.7247Z" fill="#6B6D7D"/>
</svg>
