<svg width="51" height="54" viewBox="0 0 51 54" fill="none" xmlns="http://www.w3.org/2000/svg">
<path d="M29.8846 30.7264L28.8709 29.5685C28.1276 28.7053 27.6996 27.6316 27.6996 26.5158V24.3685C27.6996 21.8211 25.7848 19.6737 23.2167 19.1474V18.1368C23.2167 17.5053 22.6761 17 22.0003 17C21.3245 17 20.7838 17.5053 20.7838 18.1368V19.1474C18.2158 19.6737 16.301 21.8 16.301 24.3685V26.5158C16.301 27.6316 15.8955 28.7053 15.1296 29.5685L14.1159 30.7264C13.4176 31.5264 14.0258 32.7474 15.1296 32.7474H28.8484C29.9748 32.7474 30.583 31.5264 29.8846 30.7264Z" fill="#888C97"/>
<path d="M22.0003 37C23.6223 37 24.9288 35.7789 24.9288 34.2631H19.0718C19.0718 35.7789 20.3784 37 22.0003 37Z" fill="#888C97"/>
<rect x="0.5" y="5.5" width="43" height="43" rx="11.5" stroke="#2A2B35"/>
</svg>
